<svg xmlns="http://www.w3.org/2000/svg" xmlns:xlink="http://www.w3.org/1999/xlink" viewBox="0 0 452.72 429.65"><defs><style>.cls-1{fill:none;}.cls-2{isolation:isolate;}.cls-3{clip-path:url(#clip-path);}.cls-17,.cls-4,.cls-5{fill:#bf1e2e;}.cls-5{opacity:0.43;mix-blend-mode:multiply;}.cls-6{clip-path:url(#clip-path-2);}.cls-7{clip-path:url(#clip-path-3);}.cls-8{clip-path:url(#clip-path-4);}.cls-9{clip-path:url(#clip-path-5);}.cls-10{clip-path:url(#clip-path-6);}.cls-11{clip-path:url(#clip-path-7);}.cls-12{clip-path:url(#clip-path-8);}.cls-13{clip-path:url(#clip-path-9);}.cls-14{clip-path:url(#clip-path-10);}.cls-15{clip-path:url(#clip-path-11);}.cls-16{clip-path:url(#clip-path-12);}.cls-17{opacity:0.33;}</style><clipPath id="clip-path" transform="translate(-21.44 -31.62)"><path class="cls-1" d="M146.63,142.44c-6.76-7.12-5.71-19,2.54-25.86,7.06-5.89,17.22-5.9,23.45,0a16.82,16.82,0,0,1,4.08,17.9,7.2,7.2,0,0,0,1.41,7.38s23.21,24.51,29.7,23.24-16.1,15.27-13,12.31S171.47,149,171.47,149a8.32,8.32,0,0,0-8.2-2.15A16.87,16.87,0,0,1,146.63,142.44Z"/></clipPath><clipPath id="clip-path-2" transform="translate(-21.44 -31.62)"><path class="cls-1" d="M293.2,54.2a22.77,22.77,0,1,1,28.87,26.7,9.77,9.77,0,0,0-6.73,7.24s-9.67,44.26-3.93,50.37-26.9-5.83-21.69-4.7S303.3,86.43,303.3,86.43a11.28,11.28,0,0,0-3.37-10.62A22.92,22.92,0,0,1,293.2,54.2Z"/></clipPath><clipPath id="clip-path-3" transform="translate(-21.44 -31.62)"><path class="cls-1" d="M191.87,87.05A23.35,23.35,0,0,1,235.8,71.36a22.78,22.78,0,0,1-4.7,23.85,9.76,9.76,0,0,0-2.26,9.69s14.09,43.06,22.31,45.37-26.81,8.8-21.61,7.09-12.24-47.75-12.24-47.75a11.21,11.21,0,0,0-8.41-7.41A22.82,22.82,0,0,1,191.87,87.05Z"/></clipPath><clipPath id="clip-path-4" transform="translate(-21.44 -31.62)"><path class="cls-1" d="M431.77,155.66a20.89,20.89,0,1,1-6.19,35.5,9,9,0,0,0-8.9-1.62S377.91,204,376.07,211.42s-8.86-23.66-7.14-19.07,43.1-13,43.1-13a10.28,10.28,0,0,0,6.49-7.85A20.85,20.85,0,0,1,431.77,155.66Z"/></clipPath><clipPath id="clip-path-5" transform="translate(-21.44 -31.62)"><path class="cls-1" d="M424.09,410.66a20.9,20.9,0,1,1-35.85,4,8.92,8.92,0,0,0-.93-9s-45.82-65.43-53.51-65.12,20.28-15.1,16.35-12.17,45.62,70,45.62,70a10.29,10.29,0,0,0,9.35,4A20.9,20.9,0,0,1,424.09,410.66Z"/></clipPath><clipPath id="clip-path-6" transform="translate(-21.44 -31.62)"><path class="cls-1" d="M454.43,253.33a20.89,20.89,0,1,1-26.07,24.91,8.93,8.93,0,0,0-6.2-6.58s-39.77-11.38-45.69-6.46,6.93-24.3,5.58-19.59,42.39,15.12,42.39,15.12a10.29,10.29,0,0,0,9.89-2.47A20.9,20.9,0,0,1,454.43,253.33Z"/></clipPath><clipPath id="clip-path-7" transform="translate(-21.44 -31.62)"><path class="cls-1" d="M303.28,436.53a20.91,20.91,0,1,1-29.39-20.9,8.92,8.92,0,0,0,5.3-7.32s3.7-41.17-2.24-46.06,25.18,2.23,20.3,1.8-6.89,44.44-6.89,44.44a10.3,10.3,0,0,0,4.29,9.24A20.87,20.87,0,0,1,303.28,436.53Z"/></clipPath><clipPath id="clip-path-8" transform="translate(-21.44 -31.62)"><path class="cls-1" d="M365.29,107a14.09,14.09,0,1,1,10.5,21.9,6,6,0,0,0-5.51,2.59s-15.62,23.07-13.71,27.88-14.12-9.52-11.38-7.67,18.57-24,18.57-24a6.91,6.91,0,0,0,.48-6.84A14.08,14.08,0,0,1,365.29,107Z"/></clipPath><clipPath id="clip-path-9" transform="translate(-21.44 -31.62)"><path class="cls-1" d="M440.4,307.82a14.08,14.08,0,1,1-20.55,13,6,6,0,0,0-3.22-5.17s-24.74-12.84-29.3-10.38,7.83-15.12,6.31-12.19,26,15.66,26,15.66a6.94,6.94,0,0,0,6.86-.32A14.09,14.09,0,0,1,440.4,307.82Z"/></clipPath><clipPath id="clip-path-10" transform="translate(-21.44 -31.62)"><path class="cls-1" d="M197,395.85a14.08,14.08,0,1,1-5.53-23.64,6,6,0,0,0,5.94-1.34s20.22-19.17,19.39-24.28,11.75,12.33,9.47,9.94-23.3,19.4-23.3,19.4a6.93,6.93,0,0,0-1.95,6.58A14,14,0,0,1,197,395.85Z"/></clipPath><clipPath id="clip-path-11" transform="translate(-21.44 -31.62)"><path class="cls-1" d="M119.15,208.4c-8.47-3.27-12.63-12.71-8.87-20.67,3.21-6.81,11.42-10.12,18.91-7.65A15.92,15.92,0,0,1,140,192.49a6.79,6.79,0,0,0,4.26,5.21s29.09,11.27,33.79,8.19-6.55,17-5.28,13.66S142,205.39,142,205.39a7.82,7.82,0,0,0-7.53,1A15.94,15.94,0,0,1,119.15,208.4Z"/></clipPath><clipPath id="clip-path-12" transform="translate(-21.44 -31.62)"><path class="cls-1" d="M121,302c-8.74,2.46-17.62-2.17-19.25-10.29-1.4-6.94,3.27-14.16,10.76-16.65a16.22,16.22,0,0,1,16,3,6.85,6.85,0,0,0,6.48,1.42S165,271,167,266s4.65,16.44,3.74,13.25-33.13,7.28-33.13,7.28a8,8,0,0,0-5.47,5.12A16.16,16.16,0,0,1,121,302Z"/></clipPath></defs><title>corona</title><g class="cls-2"><g id="OBJECTS"><g class="cls-3"><path class="cls-4" d="M146.63,142.44c-6.76-7.12-5.71-19,2.54-25.86,7.06-5.89,17.22-5.9,23.45,0a16.82,16.82,0,0,1,4.08,17.9,7.2,7.2,0,0,0,1.41,7.38s23.21,24.51,29.7,23.24-16.1,15.27-13,12.31S171.47,149,171.47,149a8.32,8.32,0,0,0-8.2-2.15A16.87,16.87,0,0,1,146.63,142.44Z" transform="translate(-21.44 -31.62)"/><path class="cls-5" d="M144.87,115.65c.83,0,16.92-3.41,22.76,17.74a32.64,32.64,0,0,0,7.91,13.8L206.71,180l14.43-23.38L184.27,103.9l-25.73-5.1Z" transform="translate(-21.44 -31.62)"/></g><ellipse class="cls-4" cx="263.62" cy="223.06" rx="123.45" ry="123.35"/><path class="cls-5" d="M323.93,137.58a123.44,123.44,0,0,1-130.65,199.6,123.41,123.41,0,1,0,130.65-199.6Z" transform="translate(-21.44 -31.62)"/><g class="cls-6"><path class="cls-4" d="M293.2,54.2a22.77,22.77,0,1,1,28.87,26.7,9.77,9.77,0,0,0-6.73,7.24s-9.67,44.26-3.93,50.37-26.9-5.83-21.69-4.7S303.3,86.43,303.3,86.43a11.28,11.28,0,0,0-3.37-10.62A22.92,22.92,0,0,1,293.2,54.2Z" transform="translate(-21.44 -31.62)"/><path class="cls-5" d="M319.91,31.62c.58.91,15.1,15.88-2.94,38.56a46.77,46.77,0,0,0-9,19.29l-12.88,59.35,34.21-2.25,29.73-80.92L346.8,33.59Z" transform="translate(-21.44 -31.62)"/></g><g class="cls-7"><path class="cls-4" d="M191.87,87.05A23.35,23.35,0,0,1,235.8,71.36a22.78,22.78,0,0,1-4.7,23.85,9.76,9.76,0,0,0-2.26,9.69s14.09,43.06,22.31,45.37-26.81,8.8-21.61,7.09-12.24-47.75-12.24-47.75a11.21,11.21,0,0,0-8.41-7.41A22.82,22.82,0,0,1,191.87,87.05Z" transform="translate(-21.44 -31.62)"/><path class="cls-5" d="M204,53.91c1,.48,21.5,5.91,17.14,34.69A45.75,45.75,0,0,0,223,109.82l19,57.69L271.13,148,256,63.1,228.78,41.79Z" transform="translate(-21.44 -31.62)"/></g><g class="cls-8"><path class="cls-4" d="M431.77,155.66a20.89,20.89,0,1,1-6.19,35.5,9,9,0,0,0-8.9-1.62S377.91,204,376.07,211.42s-8.86-23.66-7.14-19.07,43.1-13,43.1-13a10.28,10.28,0,0,0,6.49-7.85A20.85,20.85,0,0,1,431.77,155.66Z" transform="translate(-21.44 -31.62)"/><path class="cls-5" d="M462.34,165.11c-.41.9-4.7,19.52-31.06,16.8-5.35-.55-11.28-.76-16.63.45a103.67,103.67,0,0,1-10.94,1.86l-47.47,5.44,22.51,39.58,76.86-17.06,18.55-25.33Z" transform="translate(-21.44 -31.62)"/></g><g class="cls-9"><path class="cls-4" d="M424.09,410.66a20.9,20.9,0,1,1-35.85,4,8.92,8.92,0,0,0-.93-9s-45.82-65.43-53.51-65.12,20.28-15.1,16.35-12.17,45.62,70,45.62,70a10.29,10.29,0,0,0,9.35,4A20.9,20.9,0,0,1,424.09,410.66Z" transform="translate(-21.44 -31.62)"/><path class="cls-5" d="M423.53,442.62c-1-.14-20.08.93-24.82-25.11-1-5.29-2.41-11-5.06-15.84a101.88,101.88,0,0,1-4.85-10l-39.61-76.29-30.54,34.51,57.76,99.38L405.92,460Z" transform="translate(-21.44 -31.62)"/></g><g class="cls-10"><path class="cls-4" d="M454.43,253.33a20.89,20.89,0,1,1-26.07,24.91,8.93,8.93,0,0,0-6.2-6.58s-39.77-11.38-45.69-6.46,6.93-24.3,5.58-19.59,42.39,15.12,42.39,15.12a10.29,10.29,0,0,0,9.89-2.47A20.9,20.9,0,0,1,454.43,253.33Z" transform="translate(-21.44 -31.62)"/><path class="cls-5" d="M473.42,279.06c-.86.48-15.38,12.93-35-4.88-4-3.62-8.62-7.31-13.65-9.51a102,102,0,0,1-9.91-5l-41.44-23.77-5.39,45.21,72,31.83,30-9.39Z" transform="translate(-21.44 -31.62)"/></g><g class="cls-11"><path class="cls-4" d="M303.28,436.53a20.91,20.91,0,1,1-29.39-20.9,8.92,8.92,0,0,0,5.3-7.32s3.7-41.17-2.24-46.06,25.18,2.23,20.3,1.8-6.89,44.44-6.89,44.44a10.3,10.3,0,0,0,4.29,9.24A20.87,20.87,0,0,1,303.28,436.53Z" transform="translate(-21.44 -31.62)"/><path class="cls-5" d="M281.56,460c-.64-.75-15.6-12.66-1.78-35.24,2.81-4.59,5.56-9.84,6.77-15.19a103.56,103.56,0,0,1,3-10.66l15.57-45.14L259.7,357,242,433.64l14.87,27.64Z" transform="translate(-21.44 -31.62)"/></g><g class="cls-12"><path class="cls-4" d="M365.29,107a14.09,14.09,0,1,1,10.5,21.9,6,6,0,0,0-5.51,2.59s-15.62,23.07-13.71,27.88-14.12-9.52-11.38-7.67,18.57-24,18.57-24a6.91,6.91,0,0,0,.48-6.84A14.08,14.08,0,0,1,365.29,107Z" transform="translate(-21.44 -31.62)"/><path class="cls-5" d="M385.76,100.25c.13.65,5.06,12.55-10.45,21.36a35.3,35.3,0,0,0-9,6.75,69.09,69.09,0,0,1-5.26,5.29l-23.92,21.54L365,168.11,400.5,128.7l.26-21.14Z" transform="translate(-21.44 -31.62)"/></g><g class="cls-13"><path class="cls-4" d="M440.4,307.82a14.08,14.08,0,1,1-20.55,13,6,6,0,0,0-3.22-5.17s-24.74-12.84-29.3-10.38,7.83-15.12,6.31-12.19,26,15.66,26,15.66a6.94,6.94,0,0,0,6.86-.32A14.09,14.09,0,0,1,440.4,307.82Z" transform="translate(-21.44 -31.62)"/><path class="cls-5" d="M449.49,327.35c-.63.2-11.89,6.48-22.44-7.9a35.5,35.5,0,0,0-7.75-8.11,68.79,68.79,0,0,1-5.87-4.61l-24.18-21.24-9.61,29.13,43.28,30.65,21-2.19Z" transform="translate(-21.44 -31.62)"/></g><g class="cls-14"><path class="cls-4" d="M197,395.85a14.08,14.08,0,1,1-5.53-23.64,6,6,0,0,0,5.94-1.34s20.22-19.17,19.39-24.28,11.75,12.33,9.47,9.94-23.3,19.4-23.3,19.4a6.93,6.93,0,0,0-1.95,6.58A14,14,0,0,1,197,395.85Z" transform="translate(-21.44 -31.62)"/><path class="cls-5" d="M175.6,398.05c0-.66-2.24-13.34,14.81-18.6a35.57,35.57,0,0,0,10.2-4.67,69.88,69.88,0,0,1,6.28-4l28-15.89-24.42-18.6L167.34,367.1l-4.81,20.59Z" transform="translate(-21.44 -31.62)"/></g><g class="cls-15"><path class="cls-4" d="M119.15,208.4c-8.47-3.27-12.63-12.71-8.87-20.67,3.21-6.81,11.42-10.12,18.91-7.65A15.92,15.92,0,0,1,140,192.49a6.79,6.79,0,0,0,4.26,5.21s29.09,11.27,33.79,8.19-6.55,17-5.28,13.66S142,205.39,142,205.39a7.82,7.82,0,0,0-7.53,1A15.94,15.94,0,0,1,119.15,208.4Z" transform="translate(-21.44 -31.62)"/><path class="cls-5" d="M106.41,188.41c.67-.28,12.23-8.11,25.87,6.22a33.4,33.4,0,0,0,12.22,8l39,15,1.77-22.63-52-28.47L110.34,171Z" transform="translate(-21.44 -31.62)"/></g><g class="cls-16"><path class="cls-4" d="M121,302c-8.74,2.46-17.62-2.17-19.25-10.29-1.4-6.94,3.27-14.16,10.76-16.65a16.22,16.22,0,0,1,16,3,6.85,6.85,0,0,0,6.48,1.42S165,271,167,266s4.65,16.44,3.74,13.25-33.13,7.28-33.13,7.28a8,8,0,0,0-5.47,5.12A16.16,16.16,0,0,1,121,302Z" transform="translate(-21.44 -31.62)"/><path class="cls-5" d="M99,294.42c.38-.59,5.1-13.13,24.48-10.33A35.38,35.38,0,0,0,138,283l40.24-11.36-11.82-17.91-58.58,8.87L92,279.19Z" transform="translate(-21.44 -31.62)"/></g><path class="cls-17" d="M263.32,233a14.86,14.86,0,0,0-11.48,9.24,7.32,7.32,0,0,1-5.63,4.57s-5.3,1.09-11.57,2.14c-.18-.41-.35-.83-.54-1.23a87.55,87.55,0,0,0-25.63-32.11c5.33-6.4,11.23-12.39,11.23-12.39a6.35,6.35,0,0,1,6.23-1.64A14.88,14.88,0,1,0,215.45,191a7.32,7.32,0,0,1-1.82,7s-6.06,6.74-12.1,12.67a88.66,88.66,0,0,0-30.7-12.12c-.59-6.3,1.4-18.87,1.4-18.87A4.31,4.31,0,0,1,175,176.4a10,10,0,1,0-9.87-1.68,4.94,4.94,0,0,1,1.75,4.56s-1.42,12.52-3.12,18.25a87.62,87.62,0,0,0-29.84,1.93c-5-8-10.24-31.14-10.24-31.14a7,7,0,0,1,2.15-6.7A16.22,16.22,0,1,0,110,165a8,8,0,0,1,5.38,5.83s6.81,24.9,6.4,32.49q-2.31.93-4.61,2A87.75,87.75,0,0,0,92,223.05c-8.5-6.62-19-17.84-19-17.84a6.93,6.93,0,0,1-1.47-6.93,16.24,16.24,0,0,0-4.17-16.81,16.63,16.63,0,0,0-23.61,23.37,16.25,16.25,0,0,0,15.55,4.64,8,8,0,0,1,7.67,2.25S78.44,222.94,85,231a87.6,87.6,0,0,0-11.6,19.8c-7.66-.82-22.06-6.48-22.06-6.48A5.15,5.15,0,0,1,48.21,240a12,12,0,0,0-8-10.32c-5.78-1.91-12.34,1.17-15.12,7.09-3.25,6.93-.34,14.9,6.17,17.45a12,12,0,0,0,12.08-2.14A5.92,5.92,0,0,1,49.24,251s14.82,5,21,8.62a87.83,87.83,0,0,0-3.71,28.12c-7,2-20.13,2.85-20.13,2.85a4.83,4.83,0,0,1-4.32-2.07,11.35,11.35,0,0,0-10.75-4.74,11,11,0,0,0-9.9,10.63c0,6.28,5.52,11.11,12,10.67a11.31,11.31,0,0,0,9.27-5.9,5.56,5.56,0,0,1,4.55-2.92s12.92-1.43,19.86-1.21a87.94,87.94,0,0,0,7.69,27.1,89.5,89.5,0,0,0,5.06,9.26c-4.3,5.69-14.79,14.73-14.79,14.73a4.91,4.91,0,0,1-4.61,1,11.55,11.55,0,0,0-11.23,2.9c-4.08,3.87-4.91,9.94-1.92,14,3.51,4.75,10.64,5.06,15.53.84a11.52,11.52,0,0,0,4.08-10,5.67,5.67,0,0,1,2-5s9.19-8.59,14.89-12.69a88,88,0,0,0,54.11,34,131.8,131.8,0,0,1-4.89,15.1,4.28,4.28,0,0,1-3.43,2.66,10,10,0,1,0,9.28,3.76,4.92,4.92,0,0,1-.73-4.83s3.42-10,6.23-15.69a87.48,87.48,0,0,0,44.19-6.31A208.44,208.44,0,0,1,197,385.81a6.34,6.34,0,0,1-1.21,6.32,14.9,14.9,0,1,0,14-4.91,7.33,7.33,0,0,1-5.56-4.66s-4.82-11.64-7.61-20.61a87.44,87.44,0,0,0,32.22-30.33c16,7.7,37.09,19.87,37.09,19.87a6.35,6.35,0,0,1,3.31,5.51,14.9,14.9,0,1,0,7.2-13,7.32,7.32,0,0,1-7.26.22s-21-11.39-35.93-20.51a88.13,88.13,0,0,0,9.06-38.89,137.26,137.26,0,0,1,15.36-.27,4.29,4.29,0,0,1,3.63,2.36,10,10,0,1,0,.53-10,4.93,4.93,0,0,1-4.33,2.27s-9.06,0-15.42-.59a87.18,87.18,0,0,0-4.5-22.12c5.73-1.21,10.38-2,10.38-2a6.39,6.39,0,0,1,6,2.38,14.89,14.89,0,1,0,9.3-23.93Z" transform="translate(-21.44 -31.62)"/></g></g></svg>